G75*
%MOIN*%
%OFA0B0*%
%FSLAX24Y24*%
%IPPOS*%
%LPD*%
%AMOC8*
5,1,8,0,0,1.08239X$1,22.5*
%
%ADD10R,0.0630X0.1063*%
%ADD11C,0.0600*%
%ADD12C,0.0476*%
%ADD13R,0.0394X0.0433*%
%ADD14C,0.0520*%
%ADD15C,0.0866*%
%ADD16C,0.1181*%
%ADD17C,0.0100*%
D10*
X022049Y018100D03*
X023151Y018100D03*
D11*
X008120Y010710D02*
X007520Y010710D01*
X007520Y012490D02*
X008120Y012490D01*
X010080Y012490D02*
X010680Y012490D01*
X010680Y010710D02*
X010080Y010710D01*
X014020Y011710D02*
X014620Y011710D01*
X016580Y011710D02*
X017180Y011710D01*
X019020Y011490D02*
X019620Y011490D01*
X021580Y011490D02*
X022180Y011490D01*
X024020Y011710D02*
X024620Y011710D01*
X026580Y011710D02*
X027180Y011710D01*
X027180Y013490D02*
X026580Y013490D01*
X024620Y013490D02*
X024020Y013490D01*
X022180Y014210D02*
X021580Y014210D01*
X019620Y014210D02*
X019020Y014210D01*
X017180Y013490D02*
X016580Y013490D01*
X014620Y013490D02*
X014020Y013490D01*
X010680Y014710D02*
X010080Y014710D01*
X008120Y014710D02*
X007520Y014710D01*
X007520Y016490D02*
X008120Y016490D01*
X010080Y016490D02*
X010680Y016490D01*
X019020Y015990D02*
X019620Y015990D01*
X021580Y015990D02*
X022180Y015990D01*
X025520Y015710D02*
X026120Y015710D01*
X028080Y015710D02*
X028680Y015710D01*
X028680Y017490D02*
X028080Y017490D01*
X026120Y017490D02*
X025520Y017490D01*
X020100Y025300D02*
X020100Y025900D01*
X019100Y025900D02*
X019100Y025300D01*
X018100Y025300D02*
X018100Y025900D01*
X014600Y026300D02*
X014600Y026900D01*
X013600Y026900D02*
X013600Y026300D01*
X012600Y026300D02*
X012600Y026900D01*
X011600Y026900D02*
X011600Y026300D01*
X019020Y009710D02*
X019620Y009710D01*
X021580Y009710D02*
X022180Y009710D01*
D12*
X017338Y018100D03*
X016589Y018100D03*
X015862Y018100D03*
D13*
X022765Y021600D03*
X023435Y021600D03*
X023435Y022600D03*
X022765Y022600D03*
X025765Y019600D03*
X026435Y019600D03*
D14*
X021100Y019840D02*
X021100Y020360D01*
X020100Y020360D02*
X020100Y019840D01*
X019100Y019840D02*
X019100Y020360D01*
X018100Y020360D02*
X018100Y019840D01*
X017100Y019840D02*
X017100Y020360D01*
X016100Y020360D02*
X016100Y019840D01*
X015100Y019840D02*
X015100Y020360D01*
X014100Y020360D02*
X014100Y019840D01*
X013100Y019840D02*
X013100Y020360D01*
X012100Y020360D02*
X012100Y019840D01*
X011100Y019840D02*
X011100Y020360D01*
X010100Y020360D02*
X010100Y019840D01*
X009100Y019840D02*
X009100Y020360D01*
X008100Y020360D02*
X008100Y019840D01*
X008100Y022840D02*
X008100Y023360D01*
X009100Y023360D02*
X009100Y022840D01*
X010100Y022840D02*
X010100Y023360D01*
X011100Y023360D02*
X011100Y022840D01*
X012100Y022840D02*
X012100Y023360D01*
X013100Y023360D02*
X013100Y022840D01*
X014100Y022840D02*
X014100Y023360D01*
X015100Y023360D02*
X015100Y022840D01*
X016100Y022840D02*
X016100Y023360D01*
X017100Y023360D02*
X017100Y022840D01*
X018100Y022840D02*
X018100Y023360D01*
X019100Y023360D02*
X019100Y022840D01*
X020100Y022840D02*
X020100Y023360D01*
X021100Y023360D02*
X021100Y022840D01*
D15*
X025435Y023167D02*
X025435Y024033D01*
X027600Y026710D02*
X027600Y027576D01*
X029765Y024033D02*
X029765Y023167D01*
D16*
X027600Y024191D03*
D17*
X027550Y024130D01*
X025840Y022420D01*
X023500Y022420D01*
X023435Y022600D01*
X023500Y022600D01*
X023500Y022420D01*
X023500Y021610D01*
X023435Y021600D01*
X022765Y021600D02*
X022690Y021520D01*
X021520Y021520D01*
X020100Y020100D01*
X019540Y019810D02*
X019540Y020530D01*
X019270Y020800D01*
X018640Y020800D01*
X018640Y019720D01*
X020260Y018100D01*
X020260Y014230D01*
X019360Y014230D01*
X019320Y014210D01*
X019000Y014680D02*
X015490Y014680D01*
X014320Y013510D01*
X014320Y013490D01*
X013780Y013060D02*
X024940Y013060D01*
X028090Y016210D01*
X026470Y017830D01*
X026470Y019540D01*
X026435Y019600D01*
X025840Y019630D02*
X025765Y019600D01*
X025750Y019540D01*
X024670Y019540D01*
X023230Y018100D01*
X023151Y018100D01*
X022049Y018100D02*
X021250Y018100D01*
X019540Y019810D01*
X019180Y019630D02*
X024310Y014500D01*
X024310Y013510D01*
X024320Y013490D01*
X024320Y011710D02*
X023860Y011710D01*
X021880Y009730D01*
X021880Y009710D01*
X021880Y009730D02*
X019360Y009730D01*
X019320Y009710D01*
X019270Y009730D01*
X018910Y009730D01*
X016930Y011710D01*
X016880Y011710D01*
X014320Y011710D01*
X013330Y010720D01*
X010450Y010720D01*
X010380Y010710D01*
X010360Y010720D01*
X009640Y010720D01*
X009640Y012700D01*
X010360Y013420D01*
X010360Y014680D01*
X010380Y014710D01*
X012160Y014410D02*
X014410Y012160D01*
X018640Y012160D01*
X019270Y011530D01*
X019320Y011490D01*
X020260Y014230D02*
X021880Y014230D01*
X021880Y014210D01*
X020080Y015760D02*
X019000Y014680D01*
X020080Y015760D02*
X020080Y016210D01*
X018100Y018190D01*
X018100Y020100D01*
X017290Y019900D02*
X017110Y020080D01*
X017100Y020100D01*
X017290Y019900D02*
X017290Y018100D01*
X017338Y018100D01*
X016589Y018100D02*
X016390Y018100D01*
X015940Y017650D01*
X015760Y017650D01*
X015130Y018280D01*
X015130Y019450D01*
X013870Y019450D01*
X013690Y019630D01*
X013690Y020980D01*
X014050Y021340D01*
X014050Y023050D01*
X014100Y023100D01*
X014050Y023140D01*
X014050Y024130D01*
X013060Y025120D01*
X014140Y026200D01*
X014140Y027100D01*
X014410Y027370D01*
X018370Y027370D01*
X020080Y025660D01*
X020100Y025600D01*
X020170Y025570D01*
X023500Y025570D01*
X024760Y024310D01*
X026920Y026470D01*
X029710Y023680D01*
X029765Y023600D01*
X029710Y023590D01*
X028450Y022330D01*
X028450Y017560D01*
X028380Y017490D01*
X028450Y017470D01*
X028450Y016570D01*
X029170Y015850D01*
X029170Y013960D01*
X026920Y011710D01*
X026880Y011710D01*
X024320Y011710D01*
X028380Y015710D02*
X028360Y015760D01*
X028360Y015940D01*
X028090Y016210D01*
X025840Y019630D02*
X025840Y021340D01*
X028360Y023860D01*
X028360Y024490D01*
X027910Y024940D01*
X027280Y024940D01*
X026020Y023680D01*
X026020Y022870D01*
X025750Y022600D01*
X024040Y022600D01*
X022870Y023770D01*
X020890Y023770D01*
X020530Y023410D01*
X020530Y022690D01*
X020260Y022420D01*
X016750Y022420D01*
X016120Y023050D01*
X016100Y023100D01*
X016030Y023140D01*
X014680Y024490D01*
X014680Y026560D01*
X014600Y026600D01*
X013060Y025120D02*
X011620Y026560D01*
X011600Y026600D01*
X016030Y023050D02*
X016100Y023100D01*
X016030Y023050D02*
X014140Y021160D01*
X014140Y020170D01*
X014100Y020100D01*
X013150Y020080D02*
X013150Y019900D01*
X017020Y016030D01*
X019270Y016030D01*
X019320Y015990D01*
X015940Y018100D02*
X015862Y018100D01*
X015940Y018100D02*
X015940Y019990D01*
X016030Y020080D01*
X016100Y020100D01*
X015760Y020800D02*
X015130Y020170D01*
X015100Y020100D01*
X015130Y020080D01*
X015130Y019450D01*
X015760Y020800D02*
X018640Y020800D01*
X019100Y020100D02*
X019180Y020080D01*
X019180Y019630D01*
X021610Y022600D02*
X021160Y023050D01*
X021100Y023100D01*
X021610Y022600D02*
X022765Y022600D01*
X024760Y024310D02*
X025390Y023680D01*
X025435Y023600D01*
X026920Y026470D02*
X027550Y027100D01*
X027600Y027143D01*
X020080Y023590D02*
X020080Y023140D01*
X020100Y023100D01*
X020080Y023590D02*
X018100Y025570D01*
X018100Y025600D01*
X012700Y020350D02*
X012250Y020800D01*
X008920Y020800D01*
X008290Y020170D01*
X008110Y020170D01*
X008100Y020100D01*
X010090Y020080D02*
X010090Y019720D01*
X007030Y016660D01*
X007030Y016300D01*
X008110Y015220D01*
X008290Y015220D01*
X008560Y014950D01*
X008560Y013240D01*
X007840Y012520D01*
X007820Y012490D01*
X007030Y012610D02*
X007030Y011440D01*
X007750Y010720D01*
X007820Y010710D01*
X007840Y010720D01*
X009640Y010720D01*
X007030Y012610D02*
X007750Y013330D01*
X007750Y014680D01*
X007820Y014710D01*
X007820Y016490D02*
X007840Y016570D01*
X011080Y019810D01*
X011080Y020080D01*
X011100Y020100D01*
X012100Y020100D02*
X012160Y020080D01*
X012160Y014410D01*
X012700Y014140D02*
X013780Y013060D01*
X012700Y014140D02*
X012700Y020350D01*
X013100Y020100D02*
X013150Y020080D01*
X010100Y020100D02*
X010090Y020080D01*
M02*
